<mxfile host="app.diagrams.net" modified="2024-04-14T15:32:15.769Z" agent="Mozilla/5.0 (Windows NT 10.0; Win64; x64) AppleWebKit/537.36 (KHTML, like Gecko) Chrome/122.0.0.0 Safari/537.36 OPR/108.0.0.0" etag="YHIWkrhHH8DuthWQ_vL-" version="24.2.5" type="github" pages="3">
  <diagram name="Sayfa -1" id="vUJ9nCBQGhzhNoZCfMb4">
    <mxGraphModel dx="775" dy="514" grid="0" gridSize="10" guides="1" tooltips="1" connect="1" arrows="1" fold="1" page="0" pageScale="1" pageWidth="827" pageHeight="1169" math="0" shadow="0">
      <root>
        <mxCell id="0" />
        <mxCell id="1" parent="0" />
        <mxCell id="-2s89aMmhF4n5NBztHZT-1" value="Başla" style="ellipse;whiteSpace=wrap;html=1;" vertex="1" parent="1">
          <mxGeometry x="-175" y="160" width="120" height="60" as="geometry" />
        </mxCell>
        <mxCell id="-2s89aMmhF4n5NBztHZT-3" value="Sayi1" style="shape=parallelogram;perimeter=parallelogramPerimeter;whiteSpace=wrap;html=1;fixedSize=1;" vertex="1" parent="1">
          <mxGeometry x="-183" y="255" width="120" height="60" as="geometry" />
        </mxCell>
        <mxCell id="-2s89aMmhF4n5NBztHZT-10" style="edgeStyle=none;curved=1;rounded=0;orthogonalLoop=1;jettySize=auto;html=1;entryX=0.5;entryY=0;entryDx=0;entryDy=0;fontSize=12;startSize=8;endSize=8;" edge="1" parent="1" source="-2s89aMmhF4n5NBztHZT-4" target="-2s89aMmhF4n5NBztHZT-5">
          <mxGeometry relative="1" as="geometry" />
        </mxCell>
        <mxCell id="-2s89aMmhF4n5NBztHZT-4" value="Sayi2" style="shape=parallelogram;perimeter=parallelogramPerimeter;whiteSpace=wrap;html=1;fixedSize=1;" vertex="1" parent="1">
          <mxGeometry x="-175" y="341" width="120" height="54" as="geometry" />
        </mxCell>
        <mxCell id="-2s89aMmhF4n5NBztHZT-11" style="edgeStyle=none;curved=1;rounded=0;orthogonalLoop=1;jettySize=auto;html=1;fontSize=12;startSize=8;endSize=8;" edge="1" parent="1" source="-2s89aMmhF4n5NBztHZT-5" target="-2s89aMmhF4n5NBztHZT-6">
          <mxGeometry relative="1" as="geometry" />
        </mxCell>
        <mxCell id="-2s89aMmhF4n5NBztHZT-5" value="Sayi1 + Sayi2" style="shape=document;whiteSpace=wrap;html=1;boundedLbl=1;" vertex="1" parent="1">
          <mxGeometry x="-175" y="442" width="120" height="80" as="geometry" />
        </mxCell>
        <mxCell id="-2s89aMmhF4n5NBztHZT-6" value="Dur" style="ellipse;whiteSpace=wrap;html=1;" vertex="1" parent="1">
          <mxGeometry x="-175" y="558" width="120" height="80" as="geometry" />
        </mxCell>
        <mxCell id="-2s89aMmhF4n5NBztHZT-7" style="edgeStyle=none;curved=1;rounded=0;orthogonalLoop=1;jettySize=auto;html=1;entryX=0.558;entryY=0;entryDx=0;entryDy=0;entryPerimeter=0;fontSize=12;startSize=8;endSize=8;" edge="1" parent="1" source="-2s89aMmhF4n5NBztHZT-1" target="-2s89aMmhF4n5NBztHZT-3">
          <mxGeometry relative="1" as="geometry" />
        </mxCell>
        <mxCell id="-2s89aMmhF4n5NBztHZT-8" style="edgeStyle=none;curved=1;rounded=0;orthogonalLoop=1;jettySize=auto;html=1;exitX=0.5;exitY=1;exitDx=0;exitDy=0;entryX=0.45;entryY=0.083;entryDx=0;entryDy=0;entryPerimeter=0;fontSize=12;startSize=8;endSize=8;" edge="1" parent="1" source="-2s89aMmhF4n5NBztHZT-3" target="-2s89aMmhF4n5NBztHZT-4">
          <mxGeometry relative="1" as="geometry" />
        </mxCell>
      </root>
    </mxGraphModel>
  </diagram>
  <diagram id="gDmCSIjJhQQngW4qCnfd" name="Sayfa -2">
    <mxGraphModel dx="326" dy="447" grid="0" gridSize="10" guides="1" tooltips="1" connect="1" arrows="1" fold="1" page="0" pageScale="1" pageWidth="827" pageHeight="1169" math="0" shadow="0">
      <root>
        <mxCell id="0" />
        <mxCell id="1" parent="0" />
        <mxCell id="wBpFLPKRirjqJa-i3vHp-9" style="edgeStyle=none;curved=1;rounded=0;orthogonalLoop=1;jettySize=auto;html=1;entryX=0.5;entryY=0;entryDx=0;entryDy=0;fontSize=12;startSize=8;endSize=8;" edge="1" parent="1" source="wBpFLPKRirjqJa-i3vHp-1" target="wBpFLPKRirjqJa-i3vHp-5">
          <mxGeometry relative="1" as="geometry" />
        </mxCell>
        <mxCell id="wBpFLPKRirjqJa-i3vHp-1" value="Başla" style="ellipse;whiteSpace=wrap;html=1;" vertex="1" parent="1">
          <mxGeometry x="182" y="133" width="120" height="80" as="geometry" />
        </mxCell>
        <mxCell id="wBpFLPKRirjqJa-i3vHp-5" value="A sayisi" style="shape=parallelogram;perimeter=parallelogramPerimeter;whiteSpace=wrap;html=1;fixedSize=1;" vertex="1" parent="1">
          <mxGeometry x="182" y="235" width="120" height="60" as="geometry" />
        </mxCell>
        <mxCell id="wBpFLPKRirjqJa-i3vHp-11" style="edgeStyle=none;curved=1;rounded=0;orthogonalLoop=1;jettySize=auto;html=1;fontSize=12;startSize=8;endSize=8;" edge="1" parent="1" source="wBpFLPKRirjqJa-i3vHp-6" target="wBpFLPKRirjqJa-i3vHp-7">
          <mxGeometry relative="1" as="geometry" />
        </mxCell>
        <mxCell id="wBpFLPKRirjqJa-i3vHp-6" value="B sayisi" style="shape=parallelogram;perimeter=parallelogramPerimeter;whiteSpace=wrap;html=1;fixedSize=1;" vertex="1" parent="1">
          <mxGeometry x="165" y="325" width="120" height="60" as="geometry" />
        </mxCell>
        <mxCell id="wBpFLPKRirjqJa-i3vHp-12" style="edgeStyle=none;curved=1;rounded=0;orthogonalLoop=1;jettySize=auto;html=1;entryX=0.5;entryY=0;entryDx=0;entryDy=0;fontSize=12;startSize=8;endSize=8;" edge="1" parent="1" source="wBpFLPKRirjqJa-i3vHp-7" target="wBpFLPKRirjqJa-i3vHp-8">
          <mxGeometry relative="1" as="geometry" />
        </mxCell>
        <mxCell id="wBpFLPKRirjqJa-i3vHp-7" value="(A + B) / 2" style="shape=document;whiteSpace=wrap;html=1;boundedLbl=1;" vertex="1" parent="1">
          <mxGeometry x="158" y="415" width="120" height="80" as="geometry" />
        </mxCell>
        <mxCell id="wBpFLPKRirjqJa-i3vHp-8" value="Dur" style="ellipse;whiteSpace=wrap;html=1;" vertex="1" parent="1">
          <mxGeometry x="155" y="516" width="120" height="80" as="geometry" />
        </mxCell>
        <mxCell id="wBpFLPKRirjqJa-i3vHp-10" style="edgeStyle=none;curved=1;rounded=0;orthogonalLoop=1;jettySize=auto;html=1;entryX=0.611;entryY=0.017;entryDx=0;entryDy=0;entryPerimeter=0;fontSize=12;startSize=8;endSize=8;" edge="1" parent="1" source="wBpFLPKRirjqJa-i3vHp-5" target="wBpFLPKRirjqJa-i3vHp-6">
          <mxGeometry relative="1" as="geometry" />
        </mxCell>
        <mxCell id="wBpFLPKRirjqJa-i3vHp-22" style="edgeStyle=none;curved=1;rounded=0;orthogonalLoop=1;jettySize=auto;html=1;fontSize=12;startSize=8;endSize=8;" edge="1" parent="1" source="wBpFLPKRirjqJa-i3vHp-13" target="wBpFLPKRirjqJa-i3vHp-14">
          <mxGeometry relative="1" as="geometry" />
        </mxCell>
        <mxCell id="wBpFLPKRirjqJa-i3vHp-13" value="Başla" style="ellipse;whiteSpace=wrap;html=1;" vertex="1" parent="1">
          <mxGeometry x="493" y="341" width="120" height="80" as="geometry" />
        </mxCell>
        <mxCell id="wBpFLPKRirjqJa-i3vHp-23" style="edgeStyle=none;curved=1;rounded=0;orthogonalLoop=1;jettySize=auto;html=1;fontSize=12;startSize=8;endSize=8;" edge="1" parent="1" source="wBpFLPKRirjqJa-i3vHp-14" target="wBpFLPKRirjqJa-i3vHp-15">
          <mxGeometry relative="1" as="geometry" />
        </mxCell>
        <mxCell id="wBpFLPKRirjqJa-i3vHp-14" value="X" style="shape=parallelogram;perimeter=parallelogramPerimeter;whiteSpace=wrap;html=1;fixedSize=1;" vertex="1" parent="1">
          <mxGeometry x="493" y="439" width="120" height="60" as="geometry" />
        </mxCell>
        <mxCell id="wBpFLPKRirjqJa-i3vHp-24" style="edgeStyle=none;curved=1;rounded=0;orthogonalLoop=1;jettySize=auto;html=1;fontSize=12;startSize=8;endSize=8;" edge="1" parent="1" source="wBpFLPKRirjqJa-i3vHp-15" target="wBpFLPKRirjqJa-i3vHp-17">
          <mxGeometry relative="1" as="geometry" />
        </mxCell>
        <mxCell id="wBpFLPKRirjqJa-i3vHp-15" value="Y" style="shape=parallelogram;perimeter=parallelogramPerimeter;whiteSpace=wrap;html=1;fixedSize=1;" vertex="1" parent="1">
          <mxGeometry x="482" y="516" width="120" height="60" as="geometry" />
        </mxCell>
        <mxCell id="wBpFLPKRirjqJa-i3vHp-26" style="edgeStyle=none;curved=1;rounded=0;orthogonalLoop=1;jettySize=auto;html=1;fontSize=12;startSize=8;endSize=8;" edge="1" parent="1" source="wBpFLPKRirjqJa-i3vHp-28">
          <mxGeometry relative="1" as="geometry">
            <mxPoint x="669.6521739130436" y="667.5" as="targetPoint" />
            <Array as="points">
              <mxPoint x="642" y="668" />
            </Array>
          </mxGeometry>
        </mxCell>
        <mxCell id="wBpFLPKRirjqJa-i3vHp-32" style="edgeStyle=none;curved=1;rounded=0;orthogonalLoop=1;jettySize=auto;html=1;fontSize=12;startSize=8;endSize=8;" edge="1" parent="1" source="wBpFLPKRirjqJa-i3vHp-17" target="wBpFLPKRirjqJa-i3vHp-31">
          <mxGeometry relative="1" as="geometry" />
        </mxCell>
        <mxCell id="wBpFLPKRirjqJa-i3vHp-17" value="X &amp;gt; Y" style="rhombus;whiteSpace=wrap;html=1;" vertex="1" parent="1">
          <mxGeometry x="478" y="608" width="121" height="119" as="geometry" />
        </mxCell>
        <mxCell id="wBpFLPKRirjqJa-i3vHp-35" style="edgeStyle=none;curved=1;rounded=0;orthogonalLoop=1;jettySize=auto;html=1;entryX=0;entryY=0.5;entryDx=0;entryDy=0;fontSize=12;startSize=8;endSize=8;" edge="1" parent="1" source="wBpFLPKRirjqJa-i3vHp-18" target="wBpFLPKRirjqJa-i3vHp-21">
          <mxGeometry relative="1" as="geometry" />
        </mxCell>
        <mxCell id="wBpFLPKRirjqJa-i3vHp-18" value="S = X * Y" style="rounded=0;whiteSpace=wrap;html=1;" vertex="1" parent="1">
          <mxGeometry x="485" y="840" width="120" height="60" as="geometry" />
        </mxCell>
        <mxCell id="wBpFLPKRirjqJa-i3vHp-34" style="edgeStyle=none;curved=1;rounded=0;orthogonalLoop=1;jettySize=auto;html=1;exitX=0.5;exitY=1;exitDx=0;exitDy=0;entryX=0.5;entryY=0;entryDx=0;entryDy=0;fontSize=12;startSize=8;endSize=8;" edge="1" parent="1" source="wBpFLPKRirjqJa-i3vHp-19" target="wBpFLPKRirjqJa-i3vHp-21">
          <mxGeometry relative="1" as="geometry" />
        </mxCell>
        <mxCell id="wBpFLPKRirjqJa-i3vHp-19" value="S = X + Y" style="rounded=0;whiteSpace=wrap;html=1;" vertex="1" parent="1">
          <mxGeometry x="744" y="637.5" width="120" height="60" as="geometry" />
        </mxCell>
        <mxCell id="wBpFLPKRirjqJa-i3vHp-20" value="Dur" style="ellipse;whiteSpace=wrap;html=1;" vertex="1" parent="1">
          <mxGeometry x="740" y="990" width="120" height="80" as="geometry" />
        </mxCell>
        <mxCell id="wBpFLPKRirjqJa-i3vHp-21" value="S" style="shape=document;whiteSpace=wrap;html=1;boundedLbl=1;" vertex="1" parent="1">
          <mxGeometry x="744" y="830" width="120" height="80" as="geometry" />
        </mxCell>
        <mxCell id="wBpFLPKRirjqJa-i3vHp-25" style="edgeStyle=none;curved=1;rounded=0;orthogonalLoop=1;jettySize=auto;html=1;exitX=0.75;exitY=0;exitDx=0;exitDy=0;fontSize=12;startSize=8;endSize=8;" edge="1" parent="1" source="wBpFLPKRirjqJa-i3vHp-18" target="wBpFLPKRirjqJa-i3vHp-18">
          <mxGeometry relative="1" as="geometry" />
        </mxCell>
        <mxCell id="wBpFLPKRirjqJa-i3vHp-29" value="" style="edgeStyle=none;curved=1;rounded=0;orthogonalLoop=1;jettySize=auto;html=1;fontSize=12;startSize=8;endSize=8;" edge="1" parent="1" source="wBpFLPKRirjqJa-i3vHp-17" target="wBpFLPKRirjqJa-i3vHp-28">
          <mxGeometry relative="1" as="geometry">
            <mxPoint x="669.6521739130436" y="667.5" as="targetPoint" />
            <mxPoint x="599" y="668" as="sourcePoint" />
            <Array as="points" />
          </mxGeometry>
        </mxCell>
        <mxCell id="wBpFLPKRirjqJa-i3vHp-30" style="edgeStyle=none;curved=1;rounded=0;orthogonalLoop=1;jettySize=auto;html=1;fontSize=12;startSize=8;endSize=8;" edge="1" parent="1" source="wBpFLPKRirjqJa-i3vHp-28" target="wBpFLPKRirjqJa-i3vHp-19">
          <mxGeometry relative="1" as="geometry" />
        </mxCell>
        <mxCell id="wBpFLPKRirjqJa-i3vHp-28" value="Evet" style="rounded=0;whiteSpace=wrap;html=1;" vertex="1" parent="1">
          <mxGeometry x="644" y="658.5" width="46" height="18" as="geometry" />
        </mxCell>
        <mxCell id="wBpFLPKRirjqJa-i3vHp-31" value="Hayır" style="rounded=0;whiteSpace=wrap;html=1;" vertex="1" parent="1">
          <mxGeometry x="515.5" y="755" width="46" height="18" as="geometry" />
        </mxCell>
        <mxCell id="wBpFLPKRirjqJa-i3vHp-33" style="edgeStyle=none;curved=1;rounded=0;orthogonalLoop=1;jettySize=auto;html=1;exitX=0.5;exitY=1;exitDx=0;exitDy=0;entryX=0.455;entryY=-0.04;entryDx=0;entryDy=0;entryPerimeter=0;fontSize=12;startSize=8;endSize=8;" edge="1" parent="1" source="wBpFLPKRirjqJa-i3vHp-31" target="wBpFLPKRirjqJa-i3vHp-18">
          <mxGeometry relative="1" as="geometry" />
        </mxCell>
        <mxCell id="wBpFLPKRirjqJa-i3vHp-38" style="edgeStyle=none;curved=1;rounded=0;orthogonalLoop=1;jettySize=auto;html=1;entryX=0.551;entryY=0.016;entryDx=0;entryDy=0;entryPerimeter=0;fontSize=12;startSize=8;endSize=8;" edge="1" parent="1" source="wBpFLPKRirjqJa-i3vHp-21" target="wBpFLPKRirjqJa-i3vHp-20">
          <mxGeometry relative="1" as="geometry" />
        </mxCell>
      </root>
    </mxGraphModel>
  </diagram>
  <diagram id="e1fXMg4ZAs7O9uq0cenb" name="Sayfa -3">
    <mxGraphModel dx="1226" dy="521" grid="0" gridSize="10" guides="1" tooltips="1" connect="1" arrows="1" fold="1" page="0" pageScale="1" pageWidth="827" pageHeight="1169" math="0" shadow="0">
      <root>
        <mxCell id="0" />
        <mxCell id="1" parent="0" />
        <mxCell id="B4Fg3CITjANlQLvh0LOa-6" style="edgeStyle=none;curved=1;rounded=0;orthogonalLoop=1;jettySize=auto;html=1;exitX=0.5;exitY=1;exitDx=0;exitDy=0;entryX=0.5;entryY=0;entryDx=0;entryDy=0;fontSize=12;startSize=8;endSize=8;" edge="1" parent="1" source="B4Fg3CITjANlQLvh0LOa-1" target="B4Fg3CITjANlQLvh0LOa-2">
          <mxGeometry relative="1" as="geometry" />
        </mxCell>
        <mxCell id="B4Fg3CITjANlQLvh0LOa-1" value="Başla" style="ellipse;whiteSpace=wrap;html=1;" vertex="1" parent="1">
          <mxGeometry x="140" y="160" width="120" height="80" as="geometry" />
        </mxCell>
        <mxCell id="B4Fg3CITjANlQLvh0LOa-2" value="Sayi" style="shape=parallelogram;perimeter=parallelogramPerimeter;whiteSpace=wrap;html=1;fixedSize=1;" vertex="1" parent="1">
          <mxGeometry x="134" y="266" width="120" height="60" as="geometry" />
        </mxCell>
        <mxCell id="B4Fg3CITjANlQLvh0LOa-8" value="H" style="edgeStyle=none;curved=1;rounded=0;orthogonalLoop=1;jettySize=auto;html=1;entryX=1;entryY=0.5;entryDx=0;entryDy=0;fontSize=12;startSize=8;endSize=8;" edge="1" parent="1" source="B4Fg3CITjANlQLvh0LOa-3" target="B4Fg3CITjANlQLvh0LOa-4">
          <mxGeometry x="-0.0606" y="-12" relative="1" as="geometry">
            <Array as="points">
              <mxPoint x="81" y="463" />
            </Array>
            <mxPoint y="-1" as="offset" />
          </mxGeometry>
        </mxCell>
        <mxCell id="B4Fg3CITjANlQLvh0LOa-9" value="E" style="edgeStyle=none;curved=1;rounded=0;orthogonalLoop=1;jettySize=auto;html=1;exitX=1;exitY=0.5;exitDx=0;exitDy=0;entryX=0;entryY=0.5;entryDx=0;entryDy=0;fontSize=12;startSize=8;endSize=8;" edge="1" parent="1" source="B4Fg3CITjANlQLvh0LOa-3" target="B4Fg3CITjANlQLvh0LOa-5">
          <mxGeometry x="-0.0213" y="16" relative="1" as="geometry">
            <mxPoint as="offset" />
          </mxGeometry>
        </mxCell>
        <mxCell id="B4Fg3CITjANlQLvh0LOa-11" style="edgeStyle=none;curved=1;rounded=0;orthogonalLoop=1;jettySize=auto;html=1;entryX=0.5;entryY=0;entryDx=0;entryDy=0;fontSize=12;startSize=8;endSize=8;" edge="1" parent="1" source="B4Fg3CITjANlQLvh0LOa-3" target="B4Fg3CITjANlQLvh0LOa-10">
          <mxGeometry relative="1" as="geometry" />
        </mxCell>
        <mxCell id="B4Fg3CITjANlQLvh0LOa-3" value="Sayi &amp;gt; 0" style="rhombus;whiteSpace=wrap;html=1;" vertex="1" parent="1">
          <mxGeometry x="118" y="400" width="132" height="126" as="geometry" />
        </mxCell>
        <mxCell id="B4Fg3CITjANlQLvh0LOa-16" style="edgeStyle=none;curved=1;rounded=0;orthogonalLoop=1;jettySize=auto;html=1;entryX=0;entryY=0.5;entryDx=0;entryDy=0;fontSize=12;startSize=8;endSize=8;" edge="1" parent="1" source="B4Fg3CITjANlQLvh0LOa-4" target="B4Fg3CITjANlQLvh0LOa-10">
          <mxGeometry relative="1" as="geometry" />
        </mxCell>
        <mxCell id="B4Fg3CITjANlQLvh0LOa-4" value="Negatif Sayi" style="shape=document;whiteSpace=wrap;html=1;boundedLbl=1;" vertex="1" parent="1">
          <mxGeometry x="-127" y="425" width="120" height="80" as="geometry" />
        </mxCell>
        <mxCell id="B4Fg3CITjANlQLvh0LOa-17" style="edgeStyle=none;curved=1;rounded=0;orthogonalLoop=1;jettySize=auto;html=1;fontSize=12;startSize=8;endSize=8;" edge="1" parent="1" source="B4Fg3CITjANlQLvh0LOa-5">
          <mxGeometry relative="1" as="geometry">
            <mxPoint x="254" y="603" as="targetPoint" />
          </mxGeometry>
        </mxCell>
        <mxCell id="B4Fg3CITjANlQLvh0LOa-5" value="Pozitif Sayi" style="shape=document;whiteSpace=wrap;html=1;boundedLbl=1;" vertex="1" parent="1">
          <mxGeometry x="344" y="423" width="120" height="80" as="geometry" />
        </mxCell>
        <mxCell id="B4Fg3CITjANlQLvh0LOa-7" style="edgeStyle=none;curved=1;rounded=0;orthogonalLoop=1;jettySize=auto;html=1;exitX=0.5;exitY=1;exitDx=0;exitDy=0;entryX=0.561;entryY=0.008;entryDx=0;entryDy=0;entryPerimeter=0;fontSize=12;startSize=8;endSize=8;" edge="1" parent="1" source="B4Fg3CITjANlQLvh0LOa-2" target="B4Fg3CITjANlQLvh0LOa-3">
          <mxGeometry relative="1" as="geometry" />
        </mxCell>
        <mxCell id="B4Fg3CITjANlQLvh0LOa-10" value="Dur" style="ellipse;whiteSpace=wrap;html=1;" vertex="1" parent="1">
          <mxGeometry x="132" y="575" width="120" height="80" as="geometry" />
        </mxCell>
      </root>
    </mxGraphModel>
  </diagram>
</mxfile>
